# xmcd
#
# Track frame offsets:
# 150
# 15293
# 29289
# 45590
# 62310
# 77333
# 94851
# 110066
# 124105
# 139446
# 155844
# 171551
# 186800
# 200692
# 215736
# 229051
# 244370
# 260329
#
# Disc length: 3672 seconds
#
#
# Revision: 0
# Processed by: cddbd v1.5.2PL0 Copyright (c) Steve Scherf et al.
# Submitted via: FreeRIP 2.96 
#
DISCID=010e5612
DTITLE=collo de menina - vol.4
DYEAR=2003
DGENRE=forró
TTITLE0=muler chorona
TTITLE1=fusca a gás
TTITLE2=mulher perigosa
TTITLE3=na casa da  jacutinga
TTITLE4=casinha de taipa
TTITLE5=o que é que eu faço
TTITLE6=me dar um beijo
TTITLE7=você não me merece
TTITLE8=me diz o que é que eu faço
TTITLE9=parece que é amor
TTITLE10=àrea de risco
TTITLE11=grande história
TTITLE12=um sonhador
TTITLE13=a despeitada
TTITLE14=raimunda
TTITLE15=por esse amor
TTITLE16=amor sem prazer
TTITLE17=mulher chorona (bonus)
EXTD=
EXTT0=
EXTT1=
EXTT2=
EXTT3=
EXTT4=
EXTT5=
EXTT6=
EXTT7=
EXTT8=
EXTT9=
EXTT10=
EXTT11=
EXTT12=
EXTT13=
EXTT14=
EXTT15=
EXTT16=
EXTT17=
PLAYORDER=
